# xmcd
#
# Track frame offsets:
#	150
#	21182
#	43915
#	62537
#	84410
#	104997
#	126912
#	147220
#	169130
#	187962
#
# Disc length: 2775 seconds
#
# Revision: 5
# Processed by: cddbd v1.5.2PL0 Copyright (c) Steve Scherf et al.
# Submitted via: EasyCDDAExtractor 15.3.0.1
#
DISCID=8c0ad50a
DTITLE=Jerry Rivera - Fresco
DYEAR=1996
DGENRE=Latin
TTITLE0=Loco De Amor
TTITLE1=Una Y Mil Veces
TTITLE2=Desde Que Tu No Estas
TTITLE3=Si, Soy Un Muchacho Malo
TTITLE4=Digo Tu Nombre
TTITLE5=Te Recordare
TTITLE6=Fresco
TTITLE7=Llorare
TTITLE8=Linda Fantasia
TTITLE9=Suave
EXTD=
EXTT0=
EXTT1=
EXTT2=
EXTT3=
EXTT4=
EXTT5=
EXTT6=
EXTT7=
EXTT8=
EXTT9=
PLAYORDER=
